# xmcd
#
# Track frame offsets: 
#        150
#        29951
#        55040
#        102306
#        126646
#        150995
#        165554
#        180667
#        192601
#        202145
#        215570
#
# Disc length: 2964 seconds
#
# Revision: 0
# Processed by: cddbd v1.4PL0 Copyright (c) Steve Scherf et al.
# Submitted via: ExactAudioCopy v0.95a3
#
DISCID=a80b920b
DTITLE=John Hartford and the Hartford Stringband - Good Old Boys
DYEAR=1999
DGENRE=Country
TTITLE0=Good Old Boys
TTITLE1=On the Radio
TTITLE2=Cross-Eyed Child
TTITLE3=Watching the River Go By
TTITLE4=Waltz of the Mississippi
TTITLE5=Mike and John in the Wilderness
TTITLE6=Owl Feather
TTITLE7=Billy the Kid
TTITLE8=Dixie Trucker's Home
TTITLE9=Waltz of the Golden Rule
TTITLE10=Keep on Truckin'
EXTD=
EXTT0=
EXTT1=
EXTT2=
EXTT3=
EXTT4=
EXTT5=
EXTT6=
EXTT7=
EXTT8=
EXTT9=
EXTT10=
PLAYORDER=
